<?xml version="1.0" standalone="no"?>
<!DOCTYPE svg PUBLIC "-//W3C//DTD SVG 20010904//EN"
 "http://www.w3.org/TR/2001/REC-SVG-20010904/DTD/svg10.dtd">
<svg version="1.0" xmlns="http://www.w3.org/2000/svg"
 width="631.000000pt" height="1123.000000pt" viewBox="0 0 631.000000 1123.000000"
 preserveAspectRatio="xMidYMid meet">

<g transform="translate(0.000000,1123.000000) scale(0.100000,-0.100000)"
fill="#000000" stroke="none">
<path d="M5070 7372 c-200 -28 -502 -265 -664 -521 -104 -163 -179 -378 -191
-546 l-6 -80 -307 303 c-338 334 -419 406 -567 507 -199 136 -330 164 -396 85
-74 -88 -35 -182 152 -369 104 -103 213 -186 487 -370 116 -79 212 -147 212
-152 0 -4 33 -24 73 -43 191 -92 277 -160 297 -232 17 -61 6 -104 -38 -149
-55 -55 -125 -87 -203 -93 -59 -4 -68 -2 -87 19 -28 29 -31 85 -4 74 9 -4 40
-9 67 -12 59 -5 99 13 103 45 5 34 -24 72 -54 72 -29 0 -94 -31 -113 -54 -31
-37 -91 -7 -175 86 -44 48 -57 71 -66 113 -19 89 11 128 118 156 45 12 57 18
37 18 -52 1 -108 -20 -142 -54 -28 -28 -33 -40 -33 -79 0 -29 9 -64 24 -94 28
-54 106 -134 162 -166 25 -14 39 -29 40 -42 2 -44 15 -74 36 -85 41 -22 182
-7 248 27 44 22 101 89 110 130 16 69 -13 148 -74 202 -32 28 -34 33 -24 59 9
24 6 37 -17 83 -33 65 -118 188 -175 253 -53 60 -119 99 -170 101 -53 1 -75
-22 -74 -77 1 -57 25 -100 102 -179 36 -38 62 -68 58 -68 -5 0 -208 137 -288
195 -16 11 -85 62 -155 112 -71 51 -158 118 -194 150 -86 75 -205 207 -229
252 -33 65 -30 118 9 160 24 26 37 31 73 31 153 0 387 -162 776 -540 103 -100
234 -233 292 -296 l105 -114 19 -118 c19 -121 48 -261 66 -322 13 -46 13 -174
-1 -225 -13 -48 -51 -101 -77 -107 -53 -14 -157 51 -307 192 -120 112 -170
143 -232 143 -72 0 -106 -45 -124 -167 -21 -143 25 -333 122 -508 146 -259
156 -300 104 -418 -36 -81 -62 -118 -97 -136 -66 -34 -99 -5 -44 39 20 16 44
43 52 59 14 27 14 32 -1 55 -23 34 -105 68 -105 43 0 -5 11 -10 24 -10 29 0
76 -36 76 -58 0 -9 -21 -39 -46 -65 -55 -59 -55 -81 2 -85 33 -2 48 2 74 25
39 33 98 152 106 218 9 60 -25 153 -111 305 -113 200 -140 289 -140 460 0 111
3 130 23 167 25 48 47 63 92 63 51 0 103 -34 214 -140 119 -113 230 -190 284
-197 85 -10 145 71 146 200 l1 77 27 -32 c15 -18 28 -36 28 -39 0 -3 20 -17
44 -29 41 -23 45 -23 69 -7 30 20 42 63 27 102 -12 32 -4 47 13 25 41 -52 178
-126 267 -145 85 -18 83 -18 75 -5 -3 6 -18 10 -32 10 -52 0 -268 123 -338
194 -7 7 -36 60 -63 117 -28 58 -71 136 -96 173 -26 38 -44 72 -41 75 3 3 27
4 52 3 134 -6 342 69 697 249 88 45 104 49 140 43 96 -15 134 -64 114 -145
-13 -54 -23 -66 -41 -51 -7 6 -38 14 -68 18 -112 12 -283 -48 -349 -122 -37
-42 -56 -108 -41 -141 26 -58 107 -51 256 22 106 52 154 88 203 150 31 39 42
22 42 -72 0 -177 -95 -386 -209 -457 -45 -28 -126 -56 -163 -56 -15 0 -28 -4
-28 -10 0 -12 -2 -12 62 1 72 16 150 54 190 93 47 47 105 149 132 236 32 103
43 235 22 284 -12 29 -13 43 -5 58 6 11 12 47 12 80 2 54 -1 62 -26 84 -15 13
-45 28 -67 34 -22 6 -40 14 -40 18 1 4 18 19 40 34 22 15 51 45 66 68 35 53
37 137 4 232 -29 86 -24 177 15 296 48 144 24 241 -69 283 -23 10 -57 18 -76
18 -33 -1 -32 -2 15 -13 68 -17 90 -30 114 -70 32 -51 28 -140 -9 -251 -37
-109 -38 -167 -5 -265 48 -146 29 -215 -82 -300 -41 -32 -64 -40 -110 -40 -44
-1 -46 -2 -25 -13 21 -12 14 -17 -115 -80 -157 -75 -446 -176 -531 -184 -40
-4 -54 -2 -47 5 13 14 150 81 235 116 36 15 81 35 100 46 42 22 219 76 283 85
26 4 45 11 42 15 -10 16 -273 -56 -434 -119 -28 -12 -92 -41 -141 -65 -54 -27
-87 -39 -83 -30 5 13 63 53 210 145 236 148 327 219 357 283 24 50 21 130 -5
155 -29 27 -62 31 -132 15 -147 -35 -313 -163 -462 -359 -42 -55 -85 -140 -85
-170 0 -11 -5 -27 -10 -35 -13 -20 -13 23 0 155 12 118 26 163 95 310 90 189
227 355 409 496 105 82 191 126 288 149 66 15 85 31 28 22z m-143 -594 c33
-31 31 -91 -5 -149 -46 -72 -174 -170 -332 -251 -158 -82 -233 -140 -257 -195
-14 -36 -33 -42 -53 -18 -10 12 -10 28 0 77 28 145 150 314 315 438 142 107
279 148 332 98z m-1142 -244 c73 -34 181 -163 247 -294 63 -126 53 -137 -64
-74 -93 50 -210 149 -258 219 -77 111 -32 200 75 149z m1478 -326 c28 -14 20
-30 -46 -93 -111 -106 -283 -175 -362 -145 -44 17 -24 89 44 160 74 76 281
121 364 78z m-917 -214 c61 -101 144 -290 151 -344 12 -85 -73 -68 -134 28
-47 72 -67 134 -92 287 -13 72 -25 141 -27 155 -5 25 -5 25 21 -5 14 -16 51
-71 81 -121z m-383 -125 c27 -43 -30 -79 -93 -60 -22 6 -40 16 -40 21 0 17 72
59 98 57 14 -1 30 -9 35 -18z"/>
<path d="M1701 6934 c-76 -13 -137 -31 -205 -59 -49 -21 -140 -106 -173 -162
l-25 -43 -64 0 c-35 0 -64 -4 -64 -9 0 -16 32 -22 78 -15 42 6 45 5 38 -12
-21 -50 -29 -157 -19 -227 20 -134 67 -229 140 -282 23 -16 42 -33 42 -37 1
-11 -61 -28 -103 -28 -38 0 -49 7 -126 80 -94 88 -117 101 -135 76 -41 -55 42
-129 184 -166 28 -8 62 -28 95 -59 81 -75 150 -118 285 -176 119 -50 222 -68
371 -63 122 4 127 5 215 45 137 63 211 85 303 91 88 5 99 14 61 48 -12 10 -39
47 -61 81 -58 91 -176 196 -273 243 -116 56 -219 75 -337 60 -111 -13 -184
-45 -333 -144 -111 -74 -123 -76 -185 -27 -40 32 -73 86 -101 168 -25 69 -28
235 -6 298 13 38 17 41 134 87 172 68 231 82 330 75 135 -10 252 -48 468 -155
316 -156 492 -205 554 -154 19 16 21 23 15 100 -8 101 -21 120 -107 161 -114
55 -505 181 -622 200 -127 22 -268 24 -374 5z m382 -29 c103 -18 547 -163 620
-203 64 -34 73 -51 80 -140 6 -72 6 -73 -21 -83 -74 -29 -243 26 -542 175
-121 61 -212 96 -325 127 -141 38 -291 20 -457 -55 -111 -50 -121 -45 -57 28
76 86 160 129 306 155 114 21 256 20 396 -4z m57 -620 c137 -36 313 -164 376
-271 44 -75 40 -74 -155 44 -240 144 -309 166 -499 159 -70 -3 -140 -8 -157
-12 -43 -11 -23 7 52 45 34 17 82 35 105 39 70 14 219 12 278 -4z m-956 -141
c32 -30 56 -57 53 -60 -8 -8 -80 28 -109 55 -29 25 -38 61 -15 61 6 0 38 -25
71 -56z m696 52 c0 -2 -15 -14 -34 -26 -42 -26 -76 -92 -76 -149 0 -46 11 -73
43 -108 11 -13 18 -25 15 -28 -8 -9 -286 102 -335 133 -24 15 -43 30 -43 34 0
4 23 18 50 32 28 14 69 36 93 50 42 24 119 51 167 59 35 6 120 8 120 3z m160
-16 c0 -5 -6 -13 -13 -17 -51 -31 -61 -107 -20 -166 45 -65 96 -81 156 -50 41
21 54 37 71 93 l14 45 16 -37 c20 -46 20 -69 2 -111 -18 -43 -62 -82 -110 -97
-42 -13 -149 -8 -221 11 -53 14 -131 94 -141 144 -13 71 24 141 93 175 40 20
153 28 153 10z m117 -35 c35 -18 53 -34 57 -50 21 -82 -69 -169 -138 -133 -37
19 -76 77 -76 113 0 21 9 40 28 57 47 45 62 46 129 13z m251 -140 c62 -37 111
-72 109 -78 -4 -13 -265 -83 -274 -73 -3 3 8 22 23 42 23 30 29 48 29 88 0 28
-4 62 -9 75 -4 13 -4 21 0 19 5 -3 60 -36 122 -73z m-935 0 c63 -41 295 -133
431 -170 83 -22 113 -26 185 -22 47 2 97 8 110 12 18 6 23 5 19 -6 -2 -8 -36
-22 -74 -32 -92 -24 -276 -18 -381 12 -126 36 -301 128 -385 202 -37 32 -35
39 7 39 23 0 53 -12 88 -35z m1102 -93 c-21 -5 -40 12 -30 28 5 8 13 6 27 -7
18 -16 19 -18 3 -21z"/>
<path d="M1200 5685 c-69 -20 -93 -31 -121 -57 -65 -61 -111 -173 -112 -272
-1 -111 83 -427 154 -585 29 -63 29 -69 28 -215 -2 -232 22 -371 99 -581 51
-139 100 -233 225 -430 136 -216 196 -300 320 -455 410 -510 632 -713 899
-822 210 -85 440 -91 573 -13 174 101 263 375 210 649 -20 107 -45 158 -116
232 l-62 64 44 0 c99 0 243 54 358 133 66 45 184 160 272 266 77 90 93 121 66
121 -23 0 -124 98 -178 173 -86 119 -172 185 -296 226 -108 36 -173 28 -283
-39 -36 -22 -75 -40 -86 -40 -11 0 -49 19 -85 42 -62 41 -145 71 -163 60 -5
-3 14 -11 41 -18 28 -7 79 -31 113 -54 38 -24 75 -40 93 -40 17 0 60 18 101
42 68 41 74 42 156 43 79 0 91 -3 170 -41 96 -46 166 -109 243 -217 27 -37 73
-86 102 -110 30 -23 54 -45 54 -48 1 -9 -65 -19 -124 -19 -73 0 -146 23 -260
80 -149 74 -215 80 -347 31 -74 -27 -91 -26 -158 5 -65 31 -148 35 -225 12
-28 -9 -109 -46 -181 -82 -103 -53 -147 -70 -210 -81 -85 -14 -84 -15 18 -18
44 -1 68 2 70 9 5 19 253 143 320 160 74 19 144 14 208 -15 53 -24 109 -26
165 -5 117 43 193 36 323 -30 95 -48 178 -76 224 -76 35 0 37 -16 3 -24 -25
-6 -234 2 -247 10 -4 3 -43 7 -85 10 -43 3 -123 9 -178 14 -55 6 -113 6 -130
2 -21 -6 21 -12 145 -21 96 -6 204 -16 241 -22 126 -20 247 -16 328 9 40 13
75 21 78 19 8 -9 -135 -173 -206 -236 -82 -72 -206 -150 -290 -182 -32 -12
-91 -23 -137 -26 -74 -5 -83 -4 -92 14 -6 11 -10 80 -10 164 1 172 -8 209 -60
241 -20 12 -40 26 -44 32 -6 9 -83 10 -98 1 -18 -11 -211 -38 -325 -44 l-120
-8 105 -1 c90 -2 336 28 360 43 13 8 86 -18 117 -41 39 -30 42 -43 45 -246 l3
-158 -120 6 c-66 3 -159 12 -207 20 -120 19 -195 70 -359 244 -68 72 -126 138
-127 146 -2 8 32 52 75 97 78 82 147 176 198 272 36 70 72 103 125 120 26 8
36 14 23 14 -66 2 -107 -34 -180 -159 -65 -111 -127 -191 -212 -275 -34 -33
-61 -63 -61 -68 0 -4 28 -36 63 -70 34 -34 92 -94 128 -134 74 -79 169 -153
235 -182 52 -24 83 -28 284 -41 l155 -10 73 -73 c85 -84 105 -129 128 -280 17
-115 12 -185 -22 -305 -31 -105 -55 -152 -107 -209 -178 -194 -590 -146 -910
106 -188 147 -485 475 -733 806 -105 140 -305 455 -362 570 -114 229 -171 479
-172 757 0 74 12 109 25 70 9 -29 190 -299 254 -377 123 -153 247 -251 386
-305 89 -35 210 -34 285 1 76 36 105 64 136 133 32 71 43 201 25 298 -14 70
-81 220 -132 295 -76 112 -232 251 -361 322 -159 87 -367 82 -483 -13 -46 -38
-109 -148 -121 -211 -9 -51 -21 -52 -43 -3 -50 112 -141 476 -141 566 0 143
77 272 183 309 85 29 293 24 420 -11 104 -28 229 -74 337 -124 36 -16 99 -44
140 -62 41 -17 89 -38 105 -45 17 -7 60 -25 96 -38 98 -37 146 -64 221 -123
79 -64 120 -119 142 -194 20 -65 20 -107 1 -185 -22 -88 -19 -152 9 -210 31
-66 107 -137 179 -171 51 -23 62 -25 83 -13 35 18 30 42 -21 99 -25 28 -45 58
-45 66 0 25 84 56 153 55 54 0 65 -3 84 -25 12 -14 25 -46 29 -71 8 -58 35
-92 91 -116 91 -39 145 -12 182 90 26 72 74 118 131 127 22 4 40 11 40 16 0
14 -58 0 -102 -24 -35 -20 -76 -81 -93 -138 -14 -47 -44 -70 -94 -70 -81 0
-130 46 -145 135 -15 88 -59 105 -208 80 -35 -6 -88 -44 -88 -63 0 -5 23 -35
50 -66 41 -46 48 -61 39 -72 -40 -48 -192 54 -244 163 -27 56 -29 106 -9 203
34 170 -6 280 -145 396 -72 60 -123 89 -234 133 -132 53 -191 78 -327 139
-264 118 -430 163 -602 161 -57 0 -123 -7 -148 -14z m432 -646 c202 -43 465
-275 565 -496 64 -144 82 -321 43 -426 -86 -229 -401 -225 -649 8 -102 97
-180 193 -293 364 -113 169 -130 203 -122 238 55 251 218 362 456 312z"/>
<path d="M3162 5093 c-37 -18 -67 -56 -77 -96 -15 -59 74 -137 158 -137 79 0
137 47 137 112 0 109 -114 173 -218 121z m157 -20 c37 -28 57 -93 39 -129 -32
-65 -114 -86 -191 -49 -37 17 -67 58 -67 90 0 32 31 75 68 95 45 25 112 21
151 -7z"/>
<path d="M2880 4140 c0 -5 9 -10 20 -10 11 0 20 5 20 10 0 6 -9 10 -20 10 -11
0 -20 -4 -20 -10z"/>
</g>
</svg>
