<?xml version="1.0" standalone="no"?>
<!DOCTYPE svg PUBLIC "-//W3C//DTD SVG 20010904//EN"
 "http://www.w3.org/TR/2001/REC-SVG-20010904/DTD/svg10.dtd">
<svg version="1.0" xmlns="http://www.w3.org/2000/svg"
 width="750.000000pt" height="750.000000pt" viewBox="0 0 750.000000 750.000000"
 preserveAspectRatio="xMidYMid meet">

<g transform="translate(0.000000,750.000000) scale(0.100000,-0.100000)"
fill="#000000" stroke="none">
<path d="M3432 7405 c-38 -20 -88 -53 -110 -74 l-40 -39 -49 25 c-43 22 -56
24 -122 19 -96 -8 -111 -20 -111 -95 0 -74 32 -227 59 -279 32 -62 122 -121
240 -156 68 -20 111 -20 158 -1 35 15 36 16 30 59 -10 68 29 87 120 61 99 -29
165 -115 129 -170 -19 -29 -55 -33 -109 -10 -64 26 -95 20 -140 -27 -40 -43
-41 -38 -5 14 11 16 17 32 14 37 -3 5 -43 9 -88 9 -70 -1 -96 4 -163 31 -96
37 -113 38 -121 7 -13 -53 59 -140 185 -222 31 -21 57 -38 59 -39 1 -1 -4 -20
-12 -41 -7 -22 -19 -83 -26 -134 -7 -52 -17 -103 -22 -112 -9 -19 -48 -24 -64
-9 -5 6 -41 25 -80 45 -83 41 -186 70 -217 60 -37 -11 -87 -54 -124 -105 -19
-27 -43 -49 -52 -49 -9 0 -31 15 -47 33 -60 64 -59 60 -20 124 20 32 36 65 36
74 0 9 8 31 18 50 13 26 17 58 17 135 0 93 -2 104 -28 142 -22 34 -33 42 -57
42 -17 0 -30 -5 -30 -12 0 -7 -9 5 -19 27 -10 23 -39 59 -64 81 -53 47 -148
97 -174 92 -26 -5 -91 -106 -105 -163 l-12 -50 -61 0 c-49 0 -78 -7 -148 -39
-104 -46 -109 -56 -77 -153 30 -90 46 -122 83 -160 28 -30 29 -34 15 -50 -55
-62 -64 -144 -20 -186 52 -50 249 -77 316 -42 35 18 36 18 36 0 0 -38 95 1
169 70 l46 43 60 -54 59 -53 -17 -37 c-15 -30 -22 -35 -40 -30 -37 9 -138 -14
-207 -48 -54 -26 -69 -39 -88 -76 -21 -40 -23 -55 -19 -135 5 -97 28 -170 75
-239 21 -30 27 -52 28 -95 2 -108 71 -284 138 -353 49 -51 89 -57 158 -26 l54
25 1 -39 c1 -25 13 -57 33 -87 16 -26 30 -54 30 -63 0 -8 -14 -27 -31 -44 -17
-16 -42 -48 -57 -71 -15 -24 -32 -43 -38 -43 -6 0 -38 30 -70 68 -32 37 -97
108 -144 157 -70 72 -91 102 -109 150 -60 164 -77 203 -116 259 -49 73 -104
117 -180 145 -67 25 -222 54 -268 49 -39 -4 -40 -18 -7 -98 97 -240 127 -262
411 -305 20 -3 52 -16 70 -28 33 -22 79 -80 79 -100 0 -6 -28 -7 -77 -3 -65 6
-94 15 -170 53 -82 41 -98 45 -138 40 -54 -8 -126 -44 -177 -89 -40 -36 -168
-233 -168 -259 0 -20 130 -84 215 -106 87 -22 201 -13 259 21 57 33 91 75 146
178 74 139 106 155 189 94 54 -40 204 -201 226 -242 12 -24 12 -31 -1 -56 -8
-15 -17 -28 -20 -28 -3 0 -24 16 -47 35 -22 19 -56 38 -76 42 -41 7 -184 -19
-207 -38 -27 -22 -11 -52 48 -91 32 -21 76 -63 99 -93 l41 -55 -32 -27 c-18
-15 -39 -41 -46 -58 l-13 -30 -1 27 c0 15 11 39 25 54 36 39 31 63 -23 118
-137 139 -241 112 -394 -104 -41 -57 -46 -85 -24 -129 18 -34 81 -91 101 -91
23 0 26 -16 10 -54 -8 -19 -15 -55 -15 -79 0 -58 27 -158 48 -179 23 -24 124
-42 190 -34 30 4 72 16 95 27 33 17 42 19 46 8 2 -8 16 -26 31 -41 27 -26 69
-42 145 -53 l40 -6 66 83 c100 125 117 168 84 215 -14 20 -14 22 11 25 42 5
65 46 71 122 5 63 3 72 -32 141 -51 102 -100 157 -134 153 -20 -2 -31 5 -48
30 -27 39 -29 60 -7 90 12 18 25 22 64 22 132 0 386 -50 404 -79 3 -4 -2 -27
-11 -52 -13 -33 -17 -82 -17 -199 -1 -171 10 -214 69 -272 32 -32 51 -35 76
-12 22 20 39 11 39 -20 0 -66 143 -194 305 -272 76 -37 151 -46 161 -19 4 10
19 15 43 15 112 0 222 44 242 97 8 21 6 30 -11 48 l-21 22 28 18 c51 34 136
120 149 152 39 91 -4 220 -101 304 l-30 26 33 28 c91 76 97 217 13 287 -39 33
-103 44 -187 32 l-62 -10 16 24 c11 18 12 28 4 47 -17 36 -76 48 -197 40 -129
-8 -193 -26 -230 -65 -16 -16 -49 -40 -74 -52 -25 -12 -72 -48 -103 -79 l-57
-58 -68 23 c-84 28 -218 53 -340 61 -51 4 -93 9 -93 12 0 13 91 131 106 137
10 4 28 -4 47 -20 46 -39 89 -54 151 -54 64 0 168 35 227 76 35 24 124 129
136 161 3 7 22 1 54 -19 44 -28 54 -30 110 -25 110 10 284 116 347 213 42 62
51 115 53 296 2 171 -3 188 -54 214 -18 9 -33 18 -35 19 -2 1 -11 57 -22 124
-23 154 -53 203 -200 324 -43 35 -44 37 -26 52 28 21 77 19 141 -7 l55 -23 0
-56 c0 -70 36 -130 112 -187 114 -87 251 -132 397 -132 87 0 89 5 57 132 -31
121 -56 172 -116 228 -100 95 -221 124 -347 81 -34 -12 -74 -21 -88 -21 -31 0
-95 25 -95 38 0 10 56 38 129 63 90 32 110 29 334 -50 112 -39 154 -39 237 0
100 47 174 69 235 69 47 0 55 3 55 19 0 38 -140 122 -255 151 -94 24 -227 26
-308 5 -76 -20 -136 -51 -227 -119 -49 -37 -107 -68 -170 -92 -134 -51 -219
-91 -258 -121 -18 -14 -34 -23 -36 -22 -1 2 -10 17 -20 33 -16 26 -21 28 -59
22 -23 -4 -66 -18 -94 -31 -34 -15 -53 -20 -53 -12 0 64 46 287 59 287 3 0 30
-9 60 -21 30 -11 70 -19 90 -17 36 3 36 3 35 48 -1 25 -5 64 -9 88 -5 27 -4
42 3 42 19 0 35 -71 29 -126 -7 -72 3 -78 120 -64 198 22 331 79 371 156 10
20 29 41 43 47 50 25 94 178 86 303 -10 169 -109 249 -264 214 -78 -17 -121
-60 -183 -181 -28 -54 -57 -99 -64 -99 -6 0 -21 7 -32 15 -19 15 -19 15 0 26
76 45 147 150 148 218 1 56 -31 101 -110 160 -154 113 -189 121 -300 66z m142
15 c33 -12 152 -92 191 -127 72 -65 81 -109 39 -189 -31 -60 -57 -89 -106
-120 -21 -13 -38 -30 -38 -37 0 -14 54 -47 76 -47 9 0 32 38 58 93 74 159 133
203 260 195 77 -5 111 -25 141 -84 28 -54 33 -196 10 -284 -30 -115 -59 -147
-107 -116 -38 24 -255 55 -297 41 -11 -3 -21 -12 -21 -20 0 -17 72 -33 210
-46 57 -5 106 -12 109 -14 10 -10 -26 -59 -59 -81 -69 -46 -257 -94 -366 -94
l-43 0 1 73 c1 81 -12 117 -42 117 -27 0 -32 -27 -15 -90 19 -70 19 -76 -2
-84 -16 -6 -111 17 -145 35 -17 9 -17 12 -3 47 26 62 84 142 110 152 18 7 43
4 90 -11 94 -29 135 -10 135 61 0 102 -194 203 -271 141 -19 -15 -23 -27 -21
-61 4 -53 -6 -60 -80 -60 -116 0 -279 83 -316 162 -21 47 -47 155 -58 250 -6
48 -4 58 15 77 17 17 33 21 90 21 113 0 151 -22 151 -90 0 -42 13 -63 86 -144
35 -38 71 -85 79 -103 16 -33 45 -45 45 -19 0 16 -87 125 -117 148 -10 7 -31
28 -46 46 -31 39 -36 98 -11 137 20 30 106 88 170 114 57 23 64 24 98 11z
m-1078 -476 c113 -68 144 -114 144 -216 0 -41 -5 -54 -35 -87 -29 -31 -33 -41
-21 -50 37 -30 103 83 93 159 -5 43 1 54 28 44 44 -17 75 -144 56 -235 -18
-84 -22 -87 -78 -65 -26 10 -63 19 -80 20 -20 1 -33 6 -33 14 0 51 -63 98
-120 90 -27 -4 -31 0 -55 48 -14 29 -39 64 -56 78 -47 40 -40 91 28 199 30 47
52 48 129 1z m744 -150 c46 -19 90 -29 150 -33 l85 -6 -51 -92 -51 -93 -49 32
c-116 73 -184 148 -184 203 0 31 0 31 100 -11z m-977 -23 c14 -6 35 -31 52
-65 15 -30 40 -67 56 -82 l28 -27 -25 -36 c-13 -20 -27 -52 -30 -72 l-6 -36
-77 -6 c-42 -3 -91 -12 -110 -19 -32 -13 -34 -12 -65 24 -32 36 -86 173 -86
214 0 28 11 36 90 69 100 43 135 50 173 36z m126 -123 c7 -20 7 -27 0 -22 -15
9 -69 95 -69 108 1 17 58 -54 69 -86z m1651 60 c47 -10 51 -13 26 -16 -38 -5
-222 17 -249 29 -32 14 155 3 223 -13z m-1415 -88 c-10 -11 -23 -20 -28 -20
-6 0 0 11 13 25 27 29 42 25 15 -5z m-105 -30 c10 -5 24 -25 30 -45 14 -42 -5
-90 -50 -124 -45 -33 -80 -36 -113 -11 -36 28 -36 76 0 141 25 47 28 49 70 49
24 0 53 -4 63 -10z m2054 -26 c63 -15 173 -69 221 -109 l30 -24 -40 -1 c-63
-1 -123 -18 -219 -62 -82 -38 -93 -40 -155 -35 -43 3 -103 19 -173 46 -59 22
-132 44 -163 47 l-54 7 42 32 c153 116 313 147 511 99z m-1204 -99 c-11 -38
-19 -61 -19 -49 -1 22 28 128 34 122 1 -1 -5 -34 -15 -73z m-690 10 c6 -3 0
-20 -13 -36 -16 -22 -22 -45 -22 -79 0 -26 -2 -47 -5 -45 -3 2 -23 28 -43 58
-31 45 -36 58 -28 78 5 13 12 32 15 41 5 16 9 16 46 3 23 -8 45 -17 50 -20z
m40 -42 c0 -23 -60 -113 -61 -93 -2 29 3 55 17 83 16 30 44 37 44 10z m-400
-1 c0 -13 -71 -32 -119 -32 -51 0 -54 17 -3 25 20 4 44 8 52 10 32 6 70 5 70
-3z m288 -101 l33 -45 -43 -43 c-40 -41 -143 -102 -154 -91 -2 3 7 46 22 97
26 92 26 121 1 121 -26 0 -35 -24 -39 -99 -5 -100 -19 -111 -137 -111 -203 0
-276 71 -197 190 l24 37 74 -1 c56 -1 83 4 115 20 l42 21 22 -23 c36 -38 119
-27 158 20 12 14 15 12 30 -17 9 -17 31 -52 49 -76z m739 12 c-3 -10 -5 -2 -5
17 0 19 2 27 5 18 2 -10 2 -26 0 -35z m-891 -68 l-15 -40 0 43 c-1 24 5 53 11
65 l13 22 3 -25 c1 -14 -4 -43 -12 -65z m605 54 c35 -11 97 -39 138 -61 86
-47 115 -46 130 5 l9 32 1 -34 c1 -26 -8 -44 -41 -80 -48 -54 -74 -115 -87
-212 -13 -96 3 -219 30 -219 32 0 86 184 101 342 l11 117 51 21 c28 11 70 24
93 27 39 5 43 4 53 -22 9 -24 5 -33 -36 -88 -25 -34 -55 -80 -66 -102 -58
-113 -96 -289 -65 -300 36 -14 145 81 189 165 23 45 26 102 15 260 -2 31 3 38
53 72 30 21 83 49 117 62 59 23 61 23 66 5 4 -16 1 -18 -18 -13 -28 7 -88 -11
-104 -30 -15 -18 -6 -38 25 -57 42 -25 144 -131 171 -176 17 -30 28 -72 39
-150 7 -59 14 -109 14 -110 0 -2 -17 -3 -37 -3 -21 0 -76 -16 -123 -36 -129
-55 -189 -72 -278 -79 -109 -10 -165 0 -205 35 -120 105 -277 -20 -204 -162
l24 -48 -64 -41 c-77 -51 -132 -114 -181 -211 -31 -62 -44 -76 -82 -95 -64
-33 -102 -30 -148 12 -64 57 -142 249 -142 348 0 33 3 38 18 32 99 -42 125
-41 257 17 64 28 76 30 152 25 57 -3 87 -1 99 8 9 6 13 14 8 17 -22 14 -379
98 -414 98 -47 0 -93 -35 -112 -85 -6 -19 -15 -35 -19 -35 -5 0 -24 33 -43 73
-56 113 -66 259 -24 326 27 44 166 101 246 101 41 0 42 -1 42 -35 0 -136 176
-324 307 -328 27 -1 48 3 50 10 2 6 -32 51 -77 100 -45 48 -104 118 -131 154
-27 36 -65 75 -84 85 -40 21 -41 25 -19 59 15 23 15 27 1 48 -15 23 -14 24 8
19 17 -3 27 2 36 20 22 42 72 100 103 119 40 24 68 24 147 -2z m1180 -32 c137
-57 214 -171 245 -363 6 -39 4 -42 -21 -48 -15 -4 -54 -4 -88 0 -139 14 -247
56 -344 133 -74 59 -96 99 -95 172 1 54 -1 60 -26 74 l-27 16 29 -6 c16 -3 53
2 90 14 116 38 160 39 237 8z m-915 -190 c-9 -135 -66 -341 -88 -319 -16 16
-21 148 -9 214 15 75 44 144 73 175 12 13 24 23 26 23 3 0 2 -42 -2 -93z m250
17 c17 -139 -12 -223 -107 -308 -48 -43 -68 -53 -81 -41 -9 9 12 115 37 187
33 95 110 218 136 218 4 0 11 -25 15 -56z m-792 -75 c15 -12 51 -51 80 -88 30
-36 86 -101 126 -145 42 -46 68 -82 63 -87 -14 -14 -94 14 -145 49 -100 69
-168 173 -168 259 0 39 8 41 44 12z m1166 -333 c0 -65 -55 -139 -127 -172 -67
-30 -192 -12 -382 55 -47 16 -89 28 -93 25 -4 -3 -8 -18 -8 -33 0 -15 -11 -42
-24 -60 -14 -19 -22 -40 -19 -49 5 -14 3 -15 -8 -4 -7 6 -38 12 -70 12 l-58 0
-94 -112 c-83 -99 -164 -178 -182 -178 -10 0 36 84 75 136 23 30 68 71 109 98
39 25 71 53 71 62 0 9 -9 27 -20 41 -38 49 -22 136 30 166 46 27 104 22 144
-13 86 -76 270 -60 511 44 33 14 79 26 103 26 l42 0 0 -44z m61 21 c34 -26 38
-51 33 -218 -6 -177 -17 -228 -60 -285 -31 -41 -125 -109 -201 -148 -102 -51
-176 -53 -237 -5 -24 19 -26 26 -20 65 13 91 -13 141 -112 215 -29 21 -65 59
-79 84 l-26 44 26 44 c14 25 23 51 19 61 -8 22 2 21 98 -15 102 -37 230 -69
282 -69 65 0 113 21 162 69 51 50 74 94 74 141 0 32 14 38 41 17z m-1161 -99
c91 -22 167 -42 169 -44 2 -2 -36 -3 -85 -1 -83 2 -96 -1 -180 -35 -51 -21
-106 -38 -123 -38 -40 0 -100 25 -107 44 -8 22 36 98 66 113 30 16 47 14 260
-39z m-781 -48 c144 -35 225 -91 290 -202 12 -19 39 -86 62 -149 22 -63 51
-128 64 -145 l24 -31 -25 5 c-13 2 -21 8 -19 13 9 14 -32 84 -69 117 -35 31
-59 38 -211 62 -143 23 -201 74 -264 234 -23 57 -41 106 -41 109 0 14 108 6
189 -13z m1179 -120 c29 0 35 -5 48 -37 37 -94 89 -187 139 -252 30 -39 55
-75 55 -79 0 -13 -80 -125 -109 -151 -35 -33 -136 -79 -202 -92 -71 -15 -127
0 -180 48 -35 31 -43 35 -64 25 -13 -6 -41 -35 -63 -64 -52 -71 -64 -95 -52
-103 16 -10 12 -25 -7 -25 -9 0 -24 -7 -34 -16 -17 -16 -18 -15 -6 17 7 19 17
39 23 44 6 6 29 35 51 65 22 30 50 64 62 74 26 23 27 46 2 77 -32 42 -51 87
-51 122 0 29 8 40 64 85 35 28 105 101 156 162 76 91 97 110 114 106 12 -3 36
-6 54 -6z m173 -135 c66 -47 89 -87 89 -152 0 -29 -4 -53 -9 -53 -24 0 -133
172 -175 275 l-16 40 31 -37 c16 -20 52 -53 80 -73z m-1220 -205 c45 -23 99
-43 126 -46 27 -3 59 -7 71 -10 l24 -5 -24 -18 c-12 -10 -43 -56 -67 -102 -61
-116 -93 -154 -156 -185 -51 -24 -62 -26 -152 -22 -82 4 -110 10 -173 37 -41
18 -85 39 -97 47 l-22 14 60 100 c67 112 116 163 192 202 76 40 122 37 218
-12z m1754 -222 c55 -25 18 -79 -73 -107 -74 -23 -117 -50 -155 -99 -29 -38
-61 -130 -55 -160 4 -22 72 -40 96 -25 9 5 44 58 77 117 33 59 74 124 90 143
l30 36 100 4 c121 5 154 -10 187 -83 26 -59 18 -117 -23 -174 -38 -52 -57 -59
-148 -52 -82 5 -230 -13 -257 -33 -15 -11 -22 -9 -45 8 -23 16 -38 19 -82 14
l-55 -5 -6 44 c-7 52 10 107 49 164 32 46 28 66 -21 109 -34 30 -49 35 -89 31
-17 -2 -17 0 -5 15 21 26 69 47 125 55 81 12 232 11 260 -2z m-294 -114 c34
-33 36 -52 9 -87 -33 -42 -50 -93 -51 -154 l-1 -58 -25 53 c-32 69 -58 198
-49 247 7 37 8 37 48 32 25 -3 51 -16 69 -33z m-102 -207 c11 -32 29 -70 40
-86 l20 -28 -27 -12 c-19 -9 -28 -9 -30 -2 -14 43 -175 201 -203 201 -6 0 -2
14 8 31 20 34 81 88 128 112 l30 15 7 -86 c3 -48 16 -113 27 -145z m336 164
c-14 -21 -47 -78 -73 -127 l-47 -89 -42 -3 c-43 -3 -43 -3 -43 30 0 78 78 184
155 212 71 26 79 22 50 -23z m-1252 -2 c12 -6 36 -25 54 -42 26 -24 35 -28 47
-18 12 10 14 9 9 -9 -4 -13 2 -32 16 -50 11 -16 21 -34 21 -40 0 -20 -84 -120
-100 -120 -51 0 -90 14 -90 30 0 30 -76 117 -140 160 -34 23 -59 47 -57 53 10
34 191 61 240 36z m422 -14 c91 -14 203 -44 247 -66 14 -7 15 -15 7 -41 -22
-74 25 -172 108 -227 59 -39 44 -39 -42 -1 -79 35 -85 36 -85 11 0 -27 48
-178 71 -222 l18 -36 -24 -23 -25 -23 -26 24 c-66 62 -94 187 -75 344 6 53 18
113 26 133 9 20 14 41 11 48 -11 29 -204 75 -366 87 l-45 4 50 1 c28 1 95 -5
150 -13z m-644 -104 c66 -42 126 -108 114 -125 -39 -53 -49 -72 -54 -104 -6
-36 -8 -37 -56 -43 -65 -9 -99 -22 -157 -65 l-48 -34 -38 19 c-70 36 -112 103
-91 143 52 97 132 185 194 214 65 31 82 30 136 -5z m981 -17 c55 -41 135 -135
144 -169 3 -13 1 -32 -5 -43 -24 -45 -5 -149 35 -193 11 -12 13 -22 6 -36 -6
-10 -18 -40 -27 -66 -20 -57 -34 -65 -74 -41 -47 28 -46 42 4 88 50 47 61 86
22 86 -24 0 -62 -22 -90 -54 -9 -10 -20 -17 -23 -14 -10 11 -74 199 -74 219 0
13 5 19 13 16 127 -56 177 -69 177 -47 0 5 -17 18 -37 29 -47 24 -118 97 -132
134 -17 43 -12 127 6 127 3 0 27 -16 55 -36z m-510 -71 c9 -10 36 -54 59 -98
37 -67 44 -89 43 -135 0 -59 -18 -106 -47 -124 -19 -12 -42 9 -131 118 -25 31
-42 44 -48 38 -18 -18 3 -53 79 -133 58 -60 74 -84 75 -108 1 -36 -46 -110
-118 -188 l-49 -52 -60 15 c-120 32 -145 71 -90 139 56 68 94 212 64 242 -8 8
-3 15 18 27 60 30 79 91 46 147 -17 28 -16 29 13 66 17 21 46 48 64 60 34 24
51 21 82 -14z m1193 -52 c-11 -10 -160 -31 -214 -30 -34 0 -35 1 -11 10 46 19
241 36 225 20z m-309 -26 c33 -19 45 -35 58 -72 41 -121 -9 -205 -133 -220
-48 -5 -78 12 -118 71 -57 82 -39 177 39 214 84 39 98 40 154 7z m429 -26 c87
-80 123 -206 82 -286 -22 -41 -135 -141 -168 -148 -50 -11 -215 62 -285 127
-52 48 -73 43 -25 -6 41 -43 105 -77 222 -121 111 -41 127 -54 111 -89 -20
-44 -85 -69 -187 -73 l-90 -3 -96 104 c-74 80 -101 116 -114 155 -9 28 -21 53
-26 56 -15 10 -31 -45 -32 -114 -2 -61 -1 -64 34 -95 20 -17 80 -53 133 -79
53 -26 96 -53 96 -59 0 -15 -73 -2 -130 23 -71 32 -208 129 -256 182 -51 56
-57 78 -15 48 33 -24 73 -27 90 -7 6 7 20 38 30 67 15 43 22 53 37 50 77 -14
116 -12 160 9 81 40 110 115 77 205 l-20 54 66 6 c36 4 100 13 141 20 113 19
116 19 165 -26z m-1515 7 c14 -6 31 -24 39 -40 12 -26 12 -33 -4 -62 -26 -49
-74 -66 -141 -50 -50 11 -68 38 -61 88 8 61 45 92 101 83 22 -4 52 -12 66 -19z
m-206 -127 c-31 -34 -174 -77 -215 -64 -19 6 -19 7 3 24 41 32 89 52 146 61
32 6 61 16 67 25 9 13 10 13 13 -6 2 -11 -4 -29 -14 -40z m62 -24 c21 -15 51
-25 71 -25 l34 0 -25 -32 c-35 -47 -67 -133 -74 -203 -7 -59 -8 -60 -52 -82
-35 -18 -61 -23 -120 -22 -113 0 -141 13 -162 74 -20 57 -23 172 -7 208 10 23
18 25 94 29 63 3 95 11 139 32 31 15 56 32 56 37 0 13 5 12 46 -16z m288 -38
l37 -52 -46 50 c-25 27 -45 53 -45 58 0 15 18 -3 54 -56z m-189 -135 c-17 -51
-62 -122 -77 -122 -24 0 22 154 64 220 l23 35 3 -43 c2 -24 -4 -65 -13 -90z
m870 98 c3 -5 -15 -30 -42 -55 -38 -36 -49 -42 -55 -31 -11 19 5 45 45 74 35
25 43 26 52 12z m239 -280 c42 -41 76 -78 76 -83 0 -13 -158 74 -191 105 -24
22 -29 34 -29 75 0 26 3 59 7 72 5 21 9 17 33 -35 19 -41 51 -82 104 -134z"/>
<path d="M5120 5862 c-84 -34 -190 -95 -213 -120 -14 -15 -18 -37 -19 -90 0
-73 5 -92 26 -92 7 0 87 43 179 95 179 102 214 113 278 79 27 -14 94 -102 85
-111 -2 -3 -24 1 -47 7 -75 21 -172 14 -235 -14 -103 -48 -213 -174 -214 -247
0 -49 71 -128 230 -254 145 -115 200 -175 200 -219 0 -9 -14 -30 -31 -48 -22
-23 -29 -27 -24 -13 15 41 11 50 -23 53 -31 3 -34 0 -57 -52 -22 -51 -28 -56
-56 -56 -17 0 -42 9 -56 20 -41 32 -96 27 -138 -12 -40 -39 -56 -85 -31 -94
27 -11 62 4 75 32 17 38 36 17 27 -30 -9 -48 -44 -70 -111 -70 -43 -1 -58 4
-79 23 -36 34 -49 83 -43 158 3 47 2 62 -6 54 -6 -6 -11 -41 -11 -79 0 -126
50 -179 159 -170 75 6 105 36 105 104 0 41 -2 45 -21 42 -17 -2 -44 -30 -44
-44 0 -1 -10 -5 -22 -8 -34 -11 -30 28 6 64 43 43 74 47 121 16 67 -44 117
-29 138 43 8 25 20 42 33 46 28 9 35 -1 19 -30 -16 -30 -9 -39 22 -32 29 8 58
55 58 95 0 39 -54 99 -177 198 -183 146 -243 212 -243 269 0 68 78 159 183
216 57 31 69 34 147 33 140 -1 180 -32 180 -141 l0 -32 -117 2 c-100 1 -127
-2 -178 -21 -81 -30 -165 -87 -165 -112 0 -33 38 -43 155 -44 90 0 120 4 167
23 74 29 117 59 146 101 13 19 27 36 31 38 4 1 24 -21 43 -50 20 -29 84 -104
142 -167 143 -153 169 -209 216 -465 10 -56 37 -172 59 -257 72 -273 102 -504
81 -619 -16 -88 -63 -174 -119 -217 -63 -47 -177 -100 -356 -163 -260 -92
-404 -145 -617 -228 -363 -142 -535 -190 -632 -177 -170 23 -285 115 -689 548
-335 360 -399 411 -517 411 -63 1 -130 -31 -164 -77 -27 -37 -26 -121 4 -199
17 -47 50 -89 174 -225 150 -165 234 -241 289 -262 16 -6 53 -11 84 -11 45 0
54 -3 49 -15 -22 -57 -40 -217 -40 -360 -1 -140 2 -169 22 -232 37 -118 98
-171 161 -139 35 18 53 45 77 116 51 152 -5 541 -92 635 -21 23 -30 26 -59 21
-26 -5 -35 -3 -35 7 0 26 45 82 69 85 87 13 303 -380 386 -697 25 -97 35 -237
25 -336 -21 -199 -81 -338 -199 -455 -168 -169 -332 -193 -876 -131 -456 52
-578 51 -772 -5 -305 -88 -577 -316 -724 -606 -119 -235 -163 -446 -179 -858
-12 -295 -12 -310 -2 -310 5 0 12 107 15 238 10 381 44 598 128 807 112 279
301 494 550 624 262 138 436 156 919 100 591 -68 764 -48 935 113 110 102 179
234 210 403 24 125 16 305 -19 432 -80 291 -259 634 -360 688 -31 17 -38 17
-61 5 -14 -8 -36 -35 -48 -62 -25 -54 -44 -64 -108 -54 -87 14 -152 67 -354
290 -129 142 -164 202 -172 294 -5 71 16 110 79 141 88 42 178 19 291 -74 32
-26 171 -170 310 -318 418 -449 547 -546 727 -547 119 0 278 48 715 220 138
53 288 110 335 125 417 135 565 219 628 353 26 54 27 65 27 207 -1 174 -14
259 -85 540 -27 105 -53 220 -59 256 -34 203 -79 305 -184 417 -113 120 -167
183 -183 215 -14 26 -14 32 0 62 9 18 16 35 16 38 0 3 -18 26 -39 51 -22 25
-42 60 -46 78 -13 60 -52 132 -91 172 -82 81 -177 97 -294 48z m220 -12 c68
-35 133 -128 154 -222 10 -45 -11 -32 -34 19 -27 62 -53 89 -106 109 -61 23
-89 15 -239 -70 -182 -103 -196 -109 -207 -98 -6 6 -9 38 -6 73 5 73 16 85
139 149 135 70 218 81 299 40z m179 -331 c13 -60 14 -69 2 -69 -4 0 -11 19
-15 43 -3 23 -9 53 -12 66 -5 16 -4 22 4 17 6 -3 15 -29 21 -57z m51 -20 c0
-19 -16 -34 -23 -22 -3 5 -8 26 -12 48 l-6 40 20 -24 c12 -13 21 -31 21 -42z
m-117 -65 c20 -4 37 -12 37 -19 0 -22 -66 -72 -127 -96 -50 -20 -76 -24 -180
-24 -141 0 -160 8 -116 49 80 75 245 113 386 90z m-1739 -2192 c113 -223 113
-643 0 -694 -106 -49 -184 160 -163 439 9 127 35 270 51 291 6 6 28 12 49 12
36 0 40 -3 63 -48z"/>
<path d="M5378 4657 c-19 -13 -54 -27 -79 -31 -111 -18 -202 -111 -294 -300
-78 -160 -113 -262 -97 -278 9 -9 42 18 134 108 132 130 174 162 283 217 133
66 220 81 308 51 51 -17 97 -63 97 -96 0 -34 -86 -107 -174 -149 -101 -47
-162 -62 -351 -89 -154 -21 -181 -27 -173 -35 9 -9 361 46 420 66 93 31 195
86 244 131 37 34 44 47 44 77 0 84 -127 145 -249 120 -149 -30 -291 -117 -453
-277 -65 -64 -118 -111 -118 -104 0 27 46 144 101 257 88 182 194 285 292 285
21 0 41 8 52 20 57 63 206 38 289 -49 34 -36 96 -141 96 -163 0 -10 5 -18 10
-18 15 0 2 48 -27 99 -85 148 -256 225 -355 158z"/>
</g>
</svg>
