<?xml version="1.0" standalone="no"?>
<!DOCTYPE svg PUBLIC "-//W3C//DTD SVG 20010904//EN"
 "http://www.w3.org/TR/2001/REC-SVG-20010904/DTD/svg10.dtd">
<svg version="1.0" xmlns="http://www.w3.org/2000/svg"
 width="646.000000pt" height="1000.000000pt" viewBox="0 0 646.000000 1000.000000"
 preserveAspectRatio="xMidYMid meet">

<g transform="translate(0.000000,1000.000000) scale(0.100000,-0.100000)"
fill="#000000" stroke="none">
<path d="M3620 9984 c0 -23 121 -190 216 -299 97 -112 228 -243 547 -550 l248
-238 -6 -52 c-8 -62 8 -175 35 -252 46 -132 181 -286 360 -413 143 -101 223
-182 261 -265 28 -59 31 -74 27 -134 -4 -58 -15 -89 -74 -212 -59 -124 -69
-153 -72 -210 -4 -62 11 -120 26 -105 3 4 6 41 6 84 1 74 3 82 69 217 37 77
67 148 67 158 0 36 17 14 48 -65 71 -180 65 -248 -30 -376 -73 -98 -94 -181
-68 -271 9 -31 8 -33 -13 -26 -12 3 -89 9 -172 12 -143 5 -154 4 -228 -21
-148 -50 -234 -120 -392 -321 -201 -257 -445 -629 -425 -649 7 -7 20 1 40 24
l29 35 1 -36 c1 -100 108 -166 325 -199 115 -18 536 -24 681 -11 314 29 520
69 631 121 76 35 164 116 194 177 l21 44 -25 47 c-13 26 -46 112 -72 192 -72
223 -101 267 -265 399 -99 80 -203 144 -252 156 -27 7 -41 31 -53 93 -13 66 3
117 70 217 65 96 85 144 85 200 0 52 -28 149 -70 246 -23 52 -45 116 -51 144
-23 120 -93 204 -295 356 -289 216 -397 392 -385 631 1 25 9 18 99 -75 728
-766 1212 -1538 1472 -2345 l53 -163 -32 -162 c-90 -454 -212 -879 -297 -1030
-88 -159 -304 -295 -579 -368 -167 -43 -305 -63 -990 -138 -813 -90 -938 -101
-1187 -101 -378 0 -630 52 -879 182 -268 139 -520 408 -668 712 -109 225 -172
462 -196 740 l-7 79 26 -7 c69 -17 365 -77 481 -97 167 -28 379 -31 475 -6
230 61 390 221 390 390 0 59 -32 136 -81 198 -69 88 -304 232 -469 289 -273
93 -508 57 -654 -101 -66 -71 -107 -141 -141 -241 -29 -87 -55 -244 -55 -330
0 -32 -1 -58 -3 -58 -8 0 -681 141 -742 155 -163 39 -300 28 -402 -32 -66 -38
-158 -144 -197 -225 -52 -110 -70 -187 -70 -308 -1 -93 2 -111 25 -160 14 -30
45 -79 67 -109 74 -98 261 -289 343 -351 136 -102 228 -141 407 -169 82 -13
106 -21 104 -32 -29 -120 -35 -181 -35 -329 -1 -332 83 -699 240 -1050 l65
-145 1 -220 c0 -206 -1 -226 -25 -316 -44 -161 -127 -306 -274 -474 -43 -49
-235 -248 -426 -441 -192 -193 -348 -356 -348 -362 0 -6 4 -13 9 -16 12 -8
757 755 847 867 195 242 261 444 253 766 -2 72 -3 131 -3 131 1 0 21 -33 44
-73 159 -270 353 -504 526 -635 164 -125 337 -185 699 -242 391 -61 545 -113
765 -258 111 -74 325 -288 410 -409 267 -381 399 -773 515 -1523 20 -129 38
-237 41 -239 2 -3 9 0 14 5 19 19 -71 569 -136 834 -165 677 -473 1151 -916
1415 -170 101 -340 152 -678 205 -392 61 -542 115 -722 259 -178 142 -377 395
-521 661 l-46 85 -6 505 c-6 467 -15 745 -31 911 l-7 67 114 4 c94 3 122 8
159 27 101 52 144 119 145 227 0 61 -4 77 -30 119 -66 107 -155 143 -257 105
-140 -52 -255 -164 -331 -322 -48 -100 -38 -96 -173 -73 -222 38 -331 102
-540 317 -225 231 -259 288 -258 438 1 231 111 433 282 517 122 61 165 57 671
-49 227 -49 416 -88 420 -88 4 0 12 -60 19 -132 58 -638 397 -1187 888 -1440
161 -83 353 -139 574 -169 119 -16 472 -16 650 0 222 20 1394 149 1545 171
177 25 359 69 471 115 49 19 89 35 90 35 1 0 -23 -44 -52 -97 -235 -423 -484
-996 -698 -1610 -272 -780 -342 -1303 -241 -1808 46 -230 144 -467 267 -648
65 -94 75 -104 89 -90 5 5 -17 43 -50 90 -149 208 -251 478 -297 783 -23 151
-24 466 -1 640 43 329 135 670 319 1179 192 536 445 1105 653 1473 59 105 73
122 123 155 100 65 204 178 245 265 76 160 181 529 257 898 17 85 34 162 37
170 12 32 78 -307 110 -560 24 -198 24 -737 -1 -1075 -36 -492 -61 -696 -116
-922 -125 -517 -443 -940 -927 -1231 -75 -45 -92 -51 -118 -45 -16 5 -70 8
-120 8 -104 -1 -173 -26 -242 -88 -42 -39 -82 -102 -70 -113 12 -13 206 45
338 100 l128 53 49 -28 c63 -36 116 -98 144 -168 31 -79 30 -222 -1 -303 -32
-82 -95 -173 -150 -214 -25 -20 -46 -41 -46 -46 0 -29 30 -13 94 50 222 217
214 553 -16 701 l-41 27 88 52 c308 180 583 468 750 783 203 387 286 888 307
1869 8 376 -12 641 -68 930 -142 726 -476 1436 -1006 2138 -287 380 -464 576
-1038 1147 -468 467 -552 557 -656 711 -49 73 -69 90 -69 58z m1670 -3050 c75
-22 173 -73 247 -127 89 -66 201 -174 229 -223 29 -49 126 -334 115 -334 -5 0
-24 6 -42 14 -19 8 -90 26 -159 41 -147 31 -174 42 -249 99 -110 85 -200 116
-334 116 -127 0 -186 -23 -595 -232 -194 -99 -355 -178 -357 -176 -2 1 45 75
103 164 296 444 463 615 655 669 69 20 308 13 387 -11z m-3090 -14 c163 -46
401 -181 492 -278 69 -74 92 -124 93 -202 0 -83 -29 -145 -102 -218 -62 -62
-166 -115 -268 -137 -80 -17 -285 -19 -390 -5 -38 6 -184 33 -322 62 l-253 51
0 46 c0 74 19 210 41 291 57 213 183 355 360 405 75 21 249 14 349 -15z m3025
-445 c66 -18 133 -52 185 -95 l35 -29 -170 6 c-185 6 -383 -7 -555 -36 -58
-10 -107 -17 -109 -15 -8 7 306 154 359 168 73 19 182 20 255 1z m141 -155
c71 -6 165 -19 209 -30 44 -10 118 -26 164 -35 130 -25 200 -69 187 -118 -19
-78 -135 -170 -268 -212 -150 -47 -552 -95 -803 -95 -502 0 -720 67 -703 216
3 26 17 36 163 111 168 86 207 99 414 134 213 36 427 46 637 29z m-3914 -910
c85 -24 159 -147 143 -240 -10 -62 -55 -121 -115 -154 -46 -25 -68 -30 -149
-34 -85 -4 -315 19 -329 33 -2 2 15 43 39 92 45 92 139 203 206 245 38 23 141
67 158 68 6 0 26 -5 47 -10z m-345 -445 c56 -7 62 -10 67 -34 17 -78 27 -289
31 -651 3 -223 7 -479 9 -570 5 -194 3 -194 -73 -1 -129 328 -194 640 -193
926 0 137 9 219 32 305 10 39 14 42 38 37 15 -3 55 -9 89 -12z m4092 -2672
c20 -5 8 -13 -70 -45 -94 -39 -259 -91 -266 -84 -8 8 69 76 107 96 68 35 169
49 229 33z"/>
<path d="M2980 9193 c-352 -26 -701 -138 -963 -309 -254 -166 -451 -354 -411
-394 5 -5 64 29 144 85 324 224 576 366 725 407 71 20 104 22 300 22 201 0
231 -2 345 -27 69 -14 182 -42 250 -62 331 -95 350 -105 350 -185 0 -51 -37
-210 -64 -273 l-16 -39 -47 35 c-136 99 -281 147 -468 154 -206 8 -336 -31
-533 -160 -107 -70 -225 -162 -347 -272 -166 -149 -184 -160 -268 -174 -43 -7
-77 -17 -77 -21 0 -17 44 -39 110 -56 48 -12 93 -15 179 -12 l115 4 -42 -17
c-72 -31 -64 -38 115 -97 192 -64 308 -86 453 -87 111 0 135 3 214 29 95 31
236 115 236 141 0 22 -9 19 -62 -18 -163 -116 -359 -149 -593 -101 -85 17
-335 95 -335 104 0 3 15 11 34 18 27 10 44 10 92 -3 76 -20 253 -19 369 1 295
51 727 159 895 225 85 33 104 35 142 15 28 -15 38 -12 38 10 0 7 -19 18 -42
25 -70 18 -121 41 -148 65 -33 30 -66 42 -142 49 -34 4 -101 13 -147 21 -112
19 -333 18 -446 -2 -49 -8 -153 -37 -230 -64 -77 -27 -231 -80 -343 -119 -112
-39 -208 -71 -213 -71 -15 0 244 224 354 306 247 185 404 243 631 231 61 -3
138 -13 171 -22 86 -24 210 -84 282 -138 l63 -47 16 32 c44 84 84 244 84 333
0 83 -25 106 -164 149 -527 165 -833 199 -1123 126 -135 -35 -310 -129 -613
-330 -184 -122 -188 -124 -111 -50 73 71 216 179 329 249 330 205 784 311
1200 281 237 -17 370 -46 415 -91 25 -26 29 -35 24 -69 -6 -44 0 -55 20 -39
18 16 16 75 -4 109 -24 42 -77 66 -188 89 -165 33 -384 47 -555 34z m300 -917
c0 -2 -35 -12 -77 -21 -110 -25 -269 -81 -478 -170 -259 -111 -454 -155 -625
-142 -130 10 -135 20 -23 46 54 13 195 57 313 98 528 183 558 191 763 192 70
1 127 -1 127 -3z m240 -45 c92 -27 190 -64 190 -72 0 -7 -213 -79 -320 -108
-123 -33 -569 -129 -658 -142 -84 -12 -271 -8 -305 6 -15 6 -12 10 20 25 21 9
56 23 78 30 22 7 128 50 235 95 399 168 601 212 760 166z"/>
<path d="M4744 7580 c-88 -44 -184 -154 -184 -210 0 -54 67 -78 129 -45 73 37
197 217 175 252 -16 26 -72 27 -120 3z m96 -18 c0 -14 -79 -134 -109 -165 -46
-50 -119 -74 -136 -46 -31 49 141 217 223 219 12 0 22 -4 22 -8z"/>
<path d="M4265 7518 c-26 -226 14 -358 134 -443 38 -27 51 -30 114 -30 57 0
72 3 75 16 2 13 -6 15 -52 11 -102 -8 -198 69 -233 188 -13 44 -15 82 -10 187
5 108 4 133 -7 133 -10 0 -16 -20 -21 -62z"/>
<path d="M351 6079 c-73 -37 -121 -137 -121 -250 0 -62 24 -43 32 26 10 79 25
119 56 157 48 57 115 71 208 43 49 -14 146 -69 198 -112 33 -27 35 -23 -78
-168 -90 -115 -143 -206 -152 -266 -9 -52 12 -115 54 -161 44 -49 85 -68 149
-68 99 0 181 71 203 174 12 59 34 76 93 76 37 0 106 -30 126 -53 17 -21 41
-22 41 -1 0 24 -74 145 -139 227 -62 78 -188 198 -286 272 -151 114 -290 152
-384 104z m555 -301 c92 -94 192 -223 182 -234 -3 -2 -19 1 -37 7 -43 15 -126
6 -151 -16 -10 -9 -24 -42 -30 -72 -34 -163 -227 -207 -317 -72 -55 83 -30
171 92 329 36 47 80 106 98 132 23 34 36 44 47 38 8 -4 60 -55 116 -112z"/>
</g>
</svg>
